<svg width="25" height="26" viewBox="0 0 25 26" fill="none" xmlns="http://www.w3.org/2000/svg">
  <path fill-rule="evenodd" clip-rule="evenodd" d="M4.30674 7.13233C5.20687 6.22095 6.42755 5.70897 7.70034 5.70897C8.97313 5.70897 10.1938 6.22095 11.0939 7.13233L12.5003 8.55552L13.9067 7.13233C14.3495 6.66802 14.8792 6.29766 15.4648 6.04288C16.0504 5.78809 16.6803 5.65399 17.3176 5.64838C17.955 5.64277 18.587 5.76577 19.1769 6.01021C19.7668 6.25465 20.3028 6.61562 20.7534 7.07208C21.2041 7.52853 21.5605 8.07132 21.8019 8.66877C22.0432 9.26623 22.1647 9.90638 22.1591 10.5519C22.1536 11.1974 22.0212 11.8353 21.7696 12.4284C21.5181 13.0215 21.1524 13.558 20.6939 14.0064L12.5003 22.3061L4.30674 14.0064C3.40688 13.0948 2.90137 11.8585 2.90137 10.5694C2.90137 9.2803 3.40688 8.04399 4.30674 7.13233V7.13233Z" stroke="#FE365E" stroke-width="2" stroke-linejoin="round"/>
</svg>
