<svg width="24" height="24" viewBox="0 0 24 24" fill="none" xmlns="http://www.w3.org/2000/svg">
<path d="M18.5691 4.42117L13.5162 2.40002V17.5586C13.516 18.4484 13.2222 19.3133 12.6804 20.0191C12.1386 20.725 11.379 21.2323 10.5195 21.4625C9.65998 21.6926 8.74853 21.6327 7.9265 21.2921C7.10447 20.9515 6.4178 20.3491 5.97298 19.5785C5.52817 18.8078 5.35006 17.912 5.46627 17.0298C5.58249 16.1476 5.98654 15.3284 6.61577 14.6992C7.24499 14.0701 8.06423 13.6661 8.94643 13.55C9.82863 13.4339 10.7245 13.6121 11.4951 14.057C11.8319 14.2136 13.1857 15.2992 13.5162 16.0428" stroke="white" stroke-width="2" stroke-linecap="round" stroke-linejoin="round"/>
</svg>
