<svg width="24" height="24" viewBox="0 0 24 24" fill="none" xmlns="http://www.w3.org/2000/svg">
<path d="M10.8914 3.17212C11.2723 2.14262 12.7284 2.14262 13.1094 3.17212L15.0055 8.29626C15.1253 8.61993 15.3805 8.87512 15.7041 8.99489L20.8283 10.891C21.8578 11.2719 21.8578 12.728 20.8283 13.109L15.7041 15.0051C15.3805 15.1249 15.1253 15.3801 15.0055 15.7037L13.1094 20.8279C12.7284 21.8574 11.2723 21.8574 10.8914 20.8279L8.99529 15.7037C8.87552 15.3801 8.62032 15.1249 8.29665 15.0051L3.17251 13.109C2.14302 12.728 2.14302 11.2719 3.17251 10.891L8.29665 8.99489C8.62032 8.87512 8.87552 8.61993 8.99529 8.29626L10.8914 3.17212Z" stroke="currentColor" stroke-width="2" stroke-linejoin="round"/>
</svg>
