<svg width="24" height="24" viewBox="0 0 24 24" fill="none" xmlns="http://www.w3.org/2000/svg">
<path d="M15.0006 2.39999V5.99999C15.0006 6.66274 15.5378 7.19999 16.2006 7.19999H19.8006M8.40057 7.19999H10.8006M8.40057 10.8H15.6006M8.40057 14.4H15.6006M18.0006 4.19999C17.4665 3.72214 16.9123 3.15537 16.5624 2.78727C16.3296 2.54233 16.0079 2.39999 15.67 2.39999H6.60029C5.27481 2.39999 4.2003 3.4745 4.20029 4.79998L4.2002 19.1999C4.20019 20.5254 5.2747 21.5999 6.60019 21.5999L17.4002 21.6C18.7257 21.6 19.8002 20.5255 19.8002 19.2L19.8006 6.47783C19.8006 6.17099 19.6835 5.87603 19.4706 5.65513C19.0768 5.24664 18.4191 4.57451 18.0006 4.19999Z" stroke="currentColor" stroke-width="2" stroke-linecap="round" stroke-linejoin="round"/>
</svg>
