<svg width="53" height="54" viewBox="0 0 53 54" fill="none" xmlns="http://www.w3.org/2000/svg">
<g filter="url(#filter0_d_102_3301)">
<path d="M39.8094 20.4467C32.5567 16.1395 20.5936 15.7435 13.67 17.8448C12.5579 18.1821 11.3823 17.5546 11.0455 16.4427C10.7086 15.3302 11.3355 14.1552 12.448 13.8173C20.3961 11.4048 33.608 11.8707 41.9575 16.827C42.9578 17.4208 43.2854 18.7123 42.6928 19.7106C42.0996 20.7107 40.8071 21.0405 39.8094 20.4467ZM39.5718 26.826C39.063 27.6518 37.9833 27.9108 37.1588 27.4038C31.1125 23.6871 21.8921 22.6103 14.7386 24.7817C13.811 25.0618 12.8311 24.5391 12.5494 23.613C12.4151 23.1678 12.4628 22.6875 12.6821 22.2774C12.9014 21.8673 13.2743 21.5609 13.7191 21.4254C21.8909 18.9455 32.0499 20.1464 38.9947 24.4144C39.8193 24.9222 40.0788 26.0023 39.5718 26.826ZM36.8186 32.9527C36.7228 33.1101 36.5969 33.2471 36.4481 33.3557C36.2992 33.4644 36.1304 33.5427 35.9513 33.586C35.7722 33.6294 35.5863 33.637 35.4043 33.6084C35.2222 33.5798 35.0476 33.5156 34.8904 33.4194C29.6069 30.1902 22.9565 29.461 15.1245 31.2499C14.945 31.291 14.7592 31.2963 14.5777 31.2655C14.3962 31.2347 14.2226 31.1685 14.0667 31.0706C13.9108 30.9727 13.7757 30.845 13.6691 30.6949C13.5626 30.5448 13.4867 30.3751 13.4457 30.1957C13.4044 30.0161 13.399 29.8302 13.4297 29.6486C13.4604 29.467 13.5266 29.2932 13.6245 29.1372C13.7225 28.9812 13.8503 28.8461 14.0005 28.7395C14.1508 28.633 14.3206 28.5571 14.5002 28.5163C23.0709 26.5572 30.4228 27.4003 36.3533 31.0243C36.5106 31.1203 36.6473 31.2464 36.7558 31.3953C36.8643 31.5442 36.9424 31.713 36.9856 31.892C37.0288 32.0711 37.0363 32.257 37.0077 32.439C36.9791 32.6209 36.9147 32.7955 36.8186 32.9527ZM26.4996 0.5C14.0738 0.5 4 10.5734 4 22.9996C4 35.427 14.0738 45.5 26.4998 45.5C38.9264 45.5 49 35.427 49 22.9996C49 10.5736 38.9264 0.5 26.4996 0.5Z" fill="white"/>
</g>
<defs>
<filter id="filter0_d_102_3301" x="0" y="0.5" width="53" height="53" filterUnits="userSpaceOnUse" color-interpolation-filters="sRGB">
<feFlood flood-opacity="0" result="BackgroundImageFix"/>
<feColorMatrix in="SourceAlpha" type="matrix" values="0 0 0 0 0 0 0 0 0 0 0 0 0 0 0 0 0 0 127 0" result="hardAlpha"/>
<feOffset dy="4"/>
<feGaussianBlur stdDeviation="2"/>
<feComposite in2="hardAlpha" operator="out"/>
<feColorMatrix type="matrix" values="0 0 0 0 0 0 0 0 0 0 0 0 0 0 0 0 0 0 0.25 0"/>
<feBlend mode="normal" in2="BackgroundImageFix" result="effect1_dropShadow_102_3301"/>
<feBlend mode="normal" in="SourceGraphic" in2="effect1_dropShadow_102_3301" result="shape"/>
</filter>
</defs>
</svg>
